HIERARCHY
ROOT Model
{
	OFFSET 0 0 0
	CHANNELS 6 Xposition Yposition Zposition Zrotation Xrotation Yrotation
	JOINT Model1
	{
		OFFSET 0 -2.25479 2.99384
		CHANNELS 3 Zrotation Xrotation Yrotation
		JOINT Model2
		{
			OFFSET 12.111 0 0
			CHANNELS 3 Zrotation Xrotation Yrotation
			JOINT Model3
			{
				OFFSET 11.5502 0 0
				CHANNELS 3 Zrotation Xrotation Yrotation
				JOINT Model4
				{
					OFFSET 11.781 0 0
					CHANNELS 3 Zrotation Xrotation Yrotation
					JOINT Model5
					{
						OFFSET 20.0601 0 0
						CHANNELS 3 Zrotation Xrotation Yrotation
						JOINT Model6
						{
							OFFSET 11.1962 0 0
							CHANNELS 3 Zrotation Xrotation Yrotation
							End Site
							{
								OFFSET 0 0 0
							}
						}
					}
					JOINT Model7
					{
						OFFSET 10.8223 0.417534 3.51114
						CHANNELS 3 Zrotation Xrotation Yrotation
						JOINT Model8
						{
							OFFSET -6.07944 0 0
							CHANNELS 3 Zrotation Xrotation Yrotation
							JOINT Model9
							{
								OFFSET -0.277405 10.39 -0.051239
								CHANNELS 3 Zrotation Xrotation Yrotation
								JOINT Model10
								{
									OFFSET -3.43909 -0.282043 1.86679
									CHANNELS 3 Zrotation Xrotation Yrotation
									JOINT Model11
									{
										OFFSET 13.0269 0 0
										CHANNELS 3 Zrotation Xrotation Yrotation
										JOINT Model12
										{
											OFFSET 10.8866 0 0
											CHANNELS 3 Zrotation Xrotation Yrotation
											JOINT Model13
											{
												OFFSET 16.7317 0 0
												CHANNELS 3 Zrotation Xrotation Yrotation
												JOINT Model14
												{
													OFFSET 11.8292 0 0
													CHANNELS 3 Zrotation Xrotation Yrotation
													JOINT Model15
													{
														OFFSET 4.82751 -3.73566 -0.836517
														CHANNELS 3 Zrotation Xrotation Yrotation
														JOINT Model16
														{
															OFFSET 3.75311 -0.0582886 -0.0186462
															CHANNELS 3 Zrotation Xrotation Yrotation
															JOINT Model17
															{
																OFFSET 2.88689 0.0192337 0.014801
																CHANNELS 3 Zrotation Xrotation Yrotation
																End Site
																{
																	OFFSET 0 0 0
																}
															}
														}
													}
													JOINT Model18
													{
														OFFSET 9.72197 -3.06458 0.23877
														CHANNELS 3 Zrotation Xrotation Yrotation
														JOINT Model19
														{
															OFFSET 4.61131 0 0
															CHANNELS 3 Zrotation Xrotation Yrotation
															JOINT Model20
															{
																OFFSET 2.8969 -7.62939e-006 0
																CHANNELS 3 Zrotation Xrotation Yrotation
																End Site
																{
																	OFFSET 0 0 0
																}
															}
														}
													}
													JOINT Model21
													{
														OFFSET 9.54431 -0.745064 0.588928
														CHANNELS 3 Zrotation Xrotation Yrotation
														JOINT Model22
														{
															OFFSET 5.33978 0 0
															CHANNELS 3 Zrotation Xrotation Yrotation
															JOINT Model23
															{
																OFFSET 3.03619 7.62939e-006 0
																CHANNELS 3 Zrotation Xrotation Yrotation
																End Site
																{
																	OFFSET 0 0 0
																}
															}
														}
													}
													JOINT Model24
													{
														OFFSET 9.47758 1.51286 0.485107
														CHANNELS 3 Zrotation Xrotation Yrotation
														JOINT Model25
														{
															OFFSET 4.96136 7.62939e-006 0
															CHANNELS 3 Zrotation Xrotation Yrotation
															JOINT Model26
															{
																OFFSET 2.51965 0 0
																CHANNELS 3 Zrotation Xrotation Yrotation
																End Site
																{
																	OFFSET 0 0 0
																}
															}
														}
													}
													JOINT Model27
													{
														OFFSET 9.34247 3.34117 -0.239288
														CHANNELS 3 Zrotation Xrotation Yrotation
														JOINT Model28
														{
															OFFSET 3.28259 2.28882e-005 0
															CHANNELS 3 Zrotation Xrotation Yrotation
															JOINT Model29
															{
																OFFSET 2.1292 0 0
																CHANNELS 3 Zrotation Xrotation Yrotation
																End Site
																{
																	OFFSET 0 0 0
																}
															}
														}
													}
												}
											}
										}
									}
								}
							}
						}
					}
					JOINT Model30
					{
						OFFSET 10.8223 0.4179 -3.51108
						CHANNELS 3 Zrotation Xrotation Yrotation
						JOINT Model31
						{
							OFFSET 6.07944 0 0
							CHANNELS 3 Zrotation Xrotation Yrotation
							JOINT Model32
							{
								OFFSET 0.277405 -10.39 0.051239
								CHANNELS 3 Zrotation Xrotation Yrotation
								JOINT Model33
								{
									OFFSET 3.43909 0.282043 -1.86679
									CHANNELS 3 Zrotation Xrotation Yrotation
									JOINT Model34
									{
										OFFSET -13.0269 0 0
										CHANNELS 3 Zrotation Xrotation Yrotation
										JOINT Model35
										{
											OFFSET -10.8866 0 0
											CHANNELS 3 Zrotation Xrotation Yrotation
											JOINT Model36
											{
												OFFSET -16.7317 0 0
												CHANNELS 3 Zrotation Xrotation Yrotation
												JOINT Model37
												{
													OFFSET -11.8292 0 0
													CHANNELS 3 Zrotation Xrotation Yrotation
													JOINT Model38
													{
														OFFSET -4.82751 3.73566 0.836517
														CHANNELS 3 Zrotation Xrotation Yrotation
														JOINT Model39
														{
															OFFSET -3.75311 0.0582886 0.0186462
															CHANNELS 3 Zrotation Xrotation Yrotation
															JOINT Model40
															{
																OFFSET -2.88687 -0.0192337 -0.014801
																CHANNELS 3 Zrotation Xrotation Yrotation
																End Site
																{
																	OFFSET 0 0 0
																}
															}
														}
													}
													JOINT Model41
													{
														OFFSET -9.72198 3.06459 -0.23877
														CHANNELS 3 Zrotation Xrotation Yrotation
														JOINT Model42
														{
															OFFSET -4.6113 0 0
															CHANNELS 3 Zrotation Xrotation Yrotation
															JOINT Model43
															{
																OFFSET -2.89691 0 0
																CHANNELS 3 Zrotation Xrotation Yrotation
																End Site
																{
																	OFFSET 0 0 0
																}
															}
														}
													}
													JOINT Model44
													{
														OFFSET -9.54431 0.745064 -0.588928
														CHANNELS 3 Zrotation Xrotation Yrotation
														JOINT Model45
														{
															OFFSET -5.33978 0 0
															CHANNELS 3 Zrotation Xrotation Yrotation
															JOINT Model46
															{
																OFFSET -3.03619 -1.52588e-005 0
																CHANNELS 3 Zrotation Xrotation Yrotation
																End Site
																{
																	OFFSET 0 0 0
																}
															}
														}
													}
													JOINT Model47
													{
														OFFSET -9.4776 -1.51286 -0.485107
														CHANNELS 3 Zrotation Xrotation Yrotation
														JOINT Model48
														{
															OFFSET -4.96136 -1.52588e-005 0
															CHANNELS 3 Zrotation Xrotation Yrotation
															JOINT Model49
															{
																OFFSET -2.51965 0 0
																CHANNELS 3 Zrotation Xrotation Yrotation
																End Site
																{
																	OFFSET 0 0 0
																}
															}
														}
													}
													JOINT Model50
													{
														OFFSET -9.34247 -3.34118 0.239288
														CHANNELS 3 Zrotation Xrotation Yrotation
														JOINT Model51
														{
															OFFSET -3.28259 -2.28882e-005 0
															CHANNELS 3 Zrotation Xrotation Yrotation
															JOINT Model52
															{
																OFFSET -2.12921 0 0
																CHANNELS 3 Zrotation Xrotation Yrotation
																End Site
																{
																	OFFSET 0 0 0
																}
															}
														}
													}
												}
											}
										}
									}
								}
							}
						}
					}
				}
			}
		}
	}
	JOINT Model53
	{
		OFFSET 4.38025 -2.14632 -1.11517
		CHANNELS 3 Zrotation Xrotation Yrotation
		JOINT Model54
		{
			OFFSET 0 0 4.94998
			CHANNELS 3 Zrotation Xrotation Yrotation
			JOINT Model55
			{
				OFFSET 18.5642 0 0
				CHANNELS 3 Zrotation Xrotation Yrotation
				JOINT Model56
				{
					OFFSET 21.2884 0 0
					CHANNELS 3 Zrotation Xrotation Yrotation
					JOINT Model57
					{
						OFFSET 30.261 0 0
						CHANNELS 3 Zrotation Xrotation Yrotation
						JOINT Model58
						{
							OFFSET 11.7259 0 0
							CHANNELS 3 Zrotation Xrotation Yrotation
							JOINT Model59
							{
								OFFSET 10.682 0 0
								CHANNELS 3 Zrotation Xrotation Yrotation
								End Site
								{
									OFFSET 0 0 0
								}
							}
						}
					}
				}
			}
		}
	}
	JOINT Model60
	{
		OFFSET -4.38025 -2.14632 -1.11517
		CHANNELS 3 Zrotation Xrotation Yrotation
		JOINT Model61
		{
			OFFSET 0 0 -4.94998
			CHANNELS 3 Zrotation Xrotation Yrotation
			JOINT Model62
			{
				OFFSET -18.5642 0 0
				CHANNELS 3 Zrotation Xrotation Yrotation
				JOINT Model63
				{
					OFFSET -21.2884 0 0
					CHANNELS 3 Zrotation Xrotation Yrotation
					JOINT Model64
					{
						OFFSET -30.261 0 0
						CHANNELS 3 Zrotation Xrotation Yrotation
						JOINT Model65
						{
							OFFSET -11.7259 0 0
							CHANNELS 3 Zrotation Xrotation Yrotation
							JOINT Model66
							{
								OFFSET -10.682 0 0
								CHANNELS 3 Zrotation Xrotation Yrotation
								End Site
								{
									OFFSET 0 0 0
								}
							}
						}
					}
				}
			}
		}
	}
}
MOTION
Frames: 4
Frame Time: 0.033333
-669.978 174.216 -742.962 92.5998 -47.5376 95.12 -180 4.29621e-031 -90 0.300569 -0.0565141 -0.0441277 0.601093 -0.113696 -0.0879583 0.601093 -0.113259 -0.0879629 -2.15301 0.566949 4.66331 16.8651 1.62537 -0.322666 120.092 75.5343 58.4939 14.2902 1.76909 -1.74125 -167.277 84.4999 48.8109 165.993 -11.8223 -33.4314 3.75097e-006 13.2398 3.05514e-005 0.0210637 -0.28902 1.3432 1.23763e-007 -0.369719 -5.04099e-008 -0.983888 -0.0142819 1.66321 -72.0648 39.0385 39.3397 33.3638 2.10362 14.835 0.588947 0.308273 6.35287 -99.6409 81.413 100.35 -0.0181409 2.77769e-005 -0.117315 -0.124139 0.00241112 -0.799296 -79.8382 79.5773 80.5374 -0.000225754 -0.000220924 2.22476e-005 -0.000956197 0.000122893 -2.72487e-005 -66.7416 80.4058 67.2171 -0.000437108 1.59439e-005 -2.72684e-005 -0.000136571 -0.000109293 -5.45706e-005 -6.42159 81.2158 8.01779 -0.000218534 1.68978e-005 0.000212194 0.000901627 -0.000184816 -0.000218493 -59.9282 75.5373 58.5147 11.7918 10.6569 0.488308 -167.277 84.4999 48.8109 171.603 -21.3356 -25.6619 7.17438e-006 -0.411433 2.90799e-005 -1.66428 6.83019 -0.0690322 -4.0034e-006 10.2707 1.60775e-006 -1.91988 0.111816 -6.66582 -72.0648 39.0385 39.3397 33.3638 2.10361 14.835 0.588946 0.308273 6.35287 -99.6409 81.413 100.35 -0.0181409 3.00499e-005 -0.117315 -0.124139 0.00241109 -0.799296 -79.8382 79.5773 80.5374 -0.000260664 -0.000218598 2.35085e-005 -0.000956251 0.000122954 -2.74046e-005 -66.7416 80.4058 67.2171 -0.000437153 1.4852e-005 -2.73822e-005 -0.000136632 -0.000109323 -5.47247e-005 -6.42159 81.2158 8.01779 -0.000218592 1.95644e-005 0.000212245 0.000901548 -0.000191265 -0.000218636 0.000811311 0.56661 89.91 -17.6367 -4.2206 -12.6075 4.55349e-007 1.22412 -1.80886e-009 37.808 -0.925503 -0.782167 -4.18616e-008 -1.45967 -2.78304e-008 -68.6337 -5.347 1.9011 -35.4947 3.81021e-007 4.17148e-007 -180 -0.566579 -90.09 -14.8692 -2.77729 -4.48792 -4.28135e-007 -1.23984 -1.11376e-008 33.1506 -2.59179 -2.69379 3.02948e-007 -3.95476 -2.4434e-007 -65.3786 -6.50081 2.86774 -35.4947 -5.08312e-007 -3.98156e-007 
-669.919 174.224 -743.024 92.5501 -47.5408 95.0083 -180 4.29621e-031 -90 0.291772 0.00573114 -0.070565 0.583548 0.0106657 -0.141158 0.583548 0.0111028 -0.141163 -2.27934 0.278455 5.37837 17.2496 1.46686 -0.966365 120.092 75.5343 58.4939 14.5973 2.18056 -1.72238 -167.277 84.4999 48.8109 166.093 -11.983 -33.2441 3.87572e-006 13.0118 3.0523e-005 0.0186031 -0.102009 1.49815 1.24009e-007 -0.0891905 -5.04089e-008 -1.11069 -0.014359 1.4813 -72.0648 39.0385 39.3397 33.3638 2.10362 14.835 0.588947 0.308273 6.35287 -99.6409 81.413 100.35 -0.0181409 2.77769e-005 -0.117315 -0.124139 0.00241112 -0.799296 -79.8382 79.5773 80.5374 -0.000225754 -0.000220924 2.22476e-005 -0.000956197 0.000122893 -2.72487e-005 -66.7416 80.4058 67.2171 -0.000437108 1.59439e-005 -2.72684e-005 -0.000136571 -0.000109293 -5.45706e-005 -6.42159 81.2158 8.01779 -0.000218534 1.68978e-005 0.000212194 0.000901627 -0.000184816 -0.000218493 -59.9282 75.5373 58.5147 11.0757 9.59302 0.453098 -167.277 84.4999 48.8109 170.438 -21.1513 -26.4319 7.17372e-006 -0.410135 2.90799e-005 -1.65369 7.10658 -0.0730912 -4.01525e-006 10.6855 1.6099e-006 -1.54601 0.0873072 -6.46401 -72.0648 39.0385 39.3397 33.3638 2.10361 14.835 0.588946 0.308273 6.35287 -99.6409 81.413 100.35 -0.0181409 3.00499e-005 -0.117315 -0.124139 0.00241109 -0.799296 -79.8382 79.5773 80.5374 -0.000260664 -0.000218598 2.35085e-005 -0.000956251 0.000122954 -2.74046e-005 -66.7416 80.4058 67.2171 -0.000437153 1.4852e-005 -2.73822e-005 -0.000136632 -0.000109323 -5.47247e-005 -6.42159 81.2158 8.01779 -0.000218592 1.95644e-005 0.000212245 0.000901548 -0.000191265 -0.000218636 0.000811311 0.56661 89.91 -17.6579 -4.24716 -12.3976 4.55344e-007 1.05471 -1.80876e-009 37.791 -0.901272 -0.96917 -4.1844e-008 -1.42336 -2.78299e-008 -68.6285 -5.3206 1.88755 -35.4947 3.83817e-007 4.18497e-007 -180 -0.566579 -90.09 -14.8954 -2.86265 -4.70435 -4.28134e-007 -1.23287 -1.11375e-008 33.1305 -2.68437 -2.59412 3.02356e-007 -4.09341 -2.44382e-007 -65.3045 -6.5641 2.91194 -35.4947 -4.91802e-007 -3.94265e-007 
-669.887 174.253 -743.145 92.2489 -47.4972 94.6584 -180 4.29621e-031 -90 0.251963 0.0318907 -0.101221 0.50398 0.0628988 -0.202582 0.50398 0.063336 -0.202586 -2.2902 0.143127 5.62095 17.3305 1.3829 -1.08718 120.092 75.5343 58.4939 14.6912 1.9797 -1.7749 -167.277 84.4999 48.8109 165.626 -11.7313 -33.027 3.84957e-006 13.0596 3.05289e-005 0.0173562 -0.0803933 1.44154 1.24038e-007 -0.0567315 -5.04089e-008 -1.15002 -0.0149677 1.49129 -72.0648 39.0385 39.3397 33.3638 2.10362 14.835 0.588947 0.308273 6.35287 -99.6409 81.413 100.35 -0.0181409 2.77769e-005 -0.117315 -0.124139 0.00241112 -0.799296 -79.8382 79.5773 80.5374 -0.000225754 -0.000220924 2.22476e-005 -0.000956197 0.000122893 -2.72487e-005 -66.7416 80.4058 67.2171 -0.000437108 1.59439e-005 -2.72684e-005 -0.000136571 -0.000109293 -5.45706e-005 -6.42159 81.2158 8.01779 -0.000218534 1.68978e-005 0.000212194 0.000901627 -0.000184816 -0.000218493 -59.9282 75.5373 58.5147 10.6482 8.81983 0.396901 -167.277 84.4999 48.8109 169.56 -20.9728 -26.8793 7.17242e-006 -0.407567 2.90799e-005 -1.64912 7.22556 -0.0748836 -4.02036e-006 10.8641 1.61086e-006 -1.32273 0.0747102 -6.46514 -72.0648 39.0385 39.3397 33.3638 2.10361 14.835 0.588946 0.308273 6.35287 -99.6409 81.413 100.35 -0.0181409 3.00499e-005 -0.117315 -0.124139 0.00241109 -0.799296 -79.8382 79.5773 80.5374 -0.000260664 -0.000218598 2.35085e-005 -0.000956251 0.000122954 -2.74046e-005 -66.7416 80.4058 67.2171 -0.000437153 1.4852e-005 -2.73822e-005 -0.000136632 -0.000109323 -5.47247e-005 -6.42159 81.2158 8.01779 -0.000218592 1.95644e-005 0.000212245 0.000901548 -0.000191265 -0.000218636 0.000811311 0.56661 89.91 -17.7708 -4.01446 -11.8868 4.55345e-007 1.07931 -1.80877e-009 37.6669 -1.07576 -1.29625 -4.19712e-008 -1.68512 -2.78334e-008 -68.513 -5.47813 1.98233 -35.4947 3.82989e-007 4.3378e-007 -180 -0.566579 -90.09 -15.129 -2.92402 -5.03646 -4.28115e-007 -1.13282 -1.11371e-008 33.0921 -2.68325 -2.34954 3.02366e-007 -4.09087 -2.44381e-007 -65.2271 -6.52167 2.89635 -35.4947 -4.6656e-007 -3.8081e-007 
-669.856 174.277 -743.234 92.0323 -47.4348 94.3957 -180 4.29621e-031 -90 0.210348 0.0383919 -0.127082 0.420777 0.0758797 -0.254305 0.420777 0.0763169 -0.254308 -2.20138 0.0788864 5.75777 17.2677 1.34604 -1.12559 120.092 75.5343 58.4939 14.773 1.88016 -1.80708 -167.277 84.4999 48.8109 165.416 -11.5628 -32.8406 3.80588e-006 13.1395 3.05388e-005 0.0172452 -0.110856 1.37174 1.23998e-007 -0.102411 -5.04089e-008 -1.28174 -0.0167244 1.49506 -72.0648 39.0385 39.3397 33.3638 2.10362 14.835 0.588947 0.308273 6.35287 -99.6409 81.413 100.35 -0.0181409 2.77769e-005 -0.117315 -0.124139 0.00241112 -0.799296 -79.8382 79.5773 80.5374 -0.000225754 -0.000220924 2.22476e-005 -0.000956197 0.000122893 -2.72487e-005 -66.7416 80.4058 67.2171 -0.000437108 1.59439e-005 -2.72684e-005 -0.000136571 -0.000109293 -5.45706e-005 -6.42159 81.2158 8.01779 -0.000218534 1.68978e-005 0.000212194 0.000901627 -0.000184816 -0.000218493 -59.9282 75.5373 58.5147 10.2998 8.12559 0.333162 -167.277 84.4999 48.8109 168.697 -20.7633 -27.1908 7.17036e-006 -0.40352 2.90798e-005 -1.64588 7.3095 -0.0761681 -4.02396e-006 10.9901 1.61154e-006 -1.11503 0.0646854 -6.64005 -72.0648 39.0385 39.3397 33.3638 2.10361 14.835 0.588946 0.308273 6.35287 -99.6409 81.413 100.35 -0.0181409 3.00499e-005 -0.117315 -0.124139 0.00241109 -0.799296 -79.8382 79.5773 80.5374 -0.000260664 -0.000218598 2.35085e-005 -0.000956251 0.000122954 -2.74046e-005 -66.7416 80.4058 67.2171 -0.000437153 1.4852e-005 -2.73822e-005 -0.000136632 -0.000109323 -5.47247e-005 -6.42159 81.2158 8.01779 -0.000218592 1.95644e-005 0.000212245 0.000901548 -0.000191265 -0.000218636 0.000811311 0.56661 89.91 -17.843 -3.84286 -11.5163 4.55345e-007 1.10438 -1.80879e-009 37.5582 -1.17901 -1.49713 -4.20464e-008 -1.84 -2.78357e-008 -68.4288 -5.55522 2.03155 -35.4947 3.7883e-007 4.61865e-007 -180 -0.566579 -90.09 -15.2905 -2.91137 -5.22056 -4.28091e-007 -1.0108 -1.11367e-008 33.0477 -2.67425 -2.23032 3.02426e-007 -4.07693 -2.44377e-007 -65.1761 -6.50633 2.89323 -35.4947 -4.33181e-007 -3.58442e-007 
